<?xml version="1.0" encoding="UTF-8" standalone="no"?>
<!DOCTYPE svg PUBLIC "-//W3C//DTD SVG 1.0//EN" "http://www.w3.org/TR/2001/REC-SVG-20010904/DTD/svg10.dtd">
<svg version="1.0" xmlns="http://www.w3.org/2000/svg" width="175" height="527">
  <defs>
    <clipPath id="clip1">
      <path d="M5 504.56c0 22.7 34 22.7 34 0v-297c0 -22.7 -34 -22.7 -34 0z m0 -331c0 22.7 34 22.7 34 0v-146c0 -22.7 -34 -22.7 -34 0z"/>
    </clipPath>
    <style type="text/css">
      .locus { fill:url(#lograd); }
      .dark1 { fill:url(#d1grad); }
      .dark2 { fill:url(#d2grad); }
      .line  { stroke:#f00; stroke-width:1; }
      .text  { font-size: 12px; fill: #000; font-family: DejaVu Sans Condensed; }
    </style>
    <linearGradient id="lograd" x1="0%" y1="0%" x2="100%" y2="0%">
      <stop offset="0%"   style="stop-color:#BBA"/>
      <stop offset="50%"  style="stop-color:#FFE"/>
      <stop offset="100%" style="stop-color:#BBA"/>
    </linearGradient>
    <linearGradient id="d1grad" x1="0%" y1="0%" x2="100%" y2="0%">
      <stop offset="0%"   style="stop-color:#877"/>
      <stop offset="50%"  style="stop-color:#CBB"/>
      <stop offset="100%" style="stop-color:#877"/>
    </linearGradient>
    <linearGradient id="d2grad" x1="0%" y1="0%" x2="100%" y2="0%">
      <stop offset="0%"   style="stop-color:#433"/>
      <stop offset="50%"  style="stop-color:#988"/>
      <stop offset="100%" style="stop-color:#433"/>
    </linearGradient>
    <linearGradient id="bgrad" x1="0%" y1="0%" x2="100%" y2="0%">
      <stop offset="0%"   style="stop-color:#000"/>
      <stop offset="50%"  style="stop-color:#666"/>
      <stop offset="100%" style="stop-color:#000"/>
    </linearGradient>
  </defs>
 <g id="Layer 1">

     <g id="locii" clip-path="url(#clip1)">
	 <rect x="0" y="0" width="40" height="773" fill="url(#bgrad)"/>
	 <path class="locus" d="M0 502.92h40v-8.82h-40z"/>
	 <path class="locus" d="M0 478.72h40v-10.08h-40z"/>
	 <path class="locus" d="M0 458.56h40v-8.82h-40z"/>
	 <path class="locus" d="M0 442.18h40v-10.08h-40z"/>
	 <path class="locus" d="M0 422.02h40v-11.34h-40z"/>
	 <path class="locus" d="M0 396.82h40v-15.12h-40z"/>
	 <path class="locus" d="M0 372.88h40v-15.12h-40z"/>
	 <path class="locus" d="M0 351.46h40v-11.34h-40z"/>
	 <path class="locus" d="M0 312.4h40v-15.12h-40z"/>
	 <path class="locus" d="M0 293.5h40v-18.9h-40z"/>
	 <path class="locus" d="M0 259.48h40v-10.08h-40z"/>
	 <path class="locus" d="M0 244.36h40v-15.12h-40z"/>
	 <path class="locus" d="M0 220.42h40v-21.42h-40z"/>
	 <path class="dark2" d="M0 195.22h40v-11.34h-40z"/>
	 <path class="locus" d="M0 181.36h40v-11.34h-40z"/>
	 <path class="locus" d="M0 167.5h40v-16.38h-40z"/>
	 <path class="locus" d="M0 128.44h40v-7.56h-40z"/>
	 <path class="locus" d="M0 104.5h40v-6.3h-40z"/>
	 <path class="locus" d="M0 93.16h40v-12.6h-40z"/>
	 <path class="locus" d="M0 71.74h40v-17.64h-40z"/>
	 <path class="locus" d="M0 49.0599999999999h40v-7.56h-40z"/>
	 <path class="locus" d="M0 38.98h40v-10.08h-40z"/>
	 <path class="locus" d="M0 21.3399999999999h40v-5.04h-40z"/>
</g>

<path class="line" d="M30 499.51h68"/>
<text class="text" x="102" y="504.51">6q26</text>
<path class="line" d="M30 472.68h15"/>
<text class="text" x="49" y="478.68">6q25.2</text>
<path class="line" d="M30 454.15h68"/>
<text class="text" x="102" y="459.15">6q24.3</text>
<path class="line" d="M30 437.14h15"/>
<text class="text" x="49" y="442.14">6q24.1</text>
<path class="line" d="M30 416.35h68"/>
<text class="text" x="102" y="421.35">6q23.2</text>
<path class="line" d="M30 389.26h15"/>
<text class="text" x="49" y="394.26">6q22.33</text>
<path class="line" d="M30 365.32h68"/>
<text class="text" x="102" y="370.32">6q22.31</text>
<path class="line" d="M30 345.79h15"/>
<text class="text" x="49" y="350.79">6q22.1</text>
<path class="line" d="M30 304.84h68"/>
<text class="text" x="102" y="309.84">6q16.3</text>
<path class="line" d="M30 284.05h15"/>
<text class="text" x="49" y="289.05">6q16.1</text>
<path class="line" d="M30 254.44h68"/>
<text class="text" x="102" y="259.44">6q14.3</text>
<path class="line" d="M30 236.8h15"/>
<text class="text" x="49" y="241.8">6q14.1</text>
<path class="line" d="M30 209.71h68"/>
<text class="text" x="102" y="214.71">6q12</text>
<path class="line" d="M30 175.69h15"/>
<text class="text" x="49" y="180.69">6p12.1</text>
<path class="line" d="M30 159.31h68"/>
<text class="text" x="102" y="164.31">6p12.3</text>
<path class="line" d="M30 124.66h15"/>
<text class="text" x="49" y="129.66">6p21.2</text>
<path class="line" d="M30 101.35h68"/>
<text class="text" x="102" y="106.35">6p21.32</text>
<path class="line" d="M30 86.86h15"/>
<text class="text" x="49" y="91.86">6p22.1</text>
<path class="line" d="M30 62.92h68"/>
<text class="text" x="102" y="67.92">6p22.3</text>
<path class="line" d="M30 45.28h15"/>
<text class="text" x="49" y="50.28">6p24.1</text>
<path class="line" d="M30 33.9399999999999h68"/>
<text class="text" x="102" y="38.9399999999999">6p24.3</text>
<path class="line" d="M30 18.8199999999999h15"/>
<text class="text" x="49" y="23.8199999999999">6p25.2</text>
 </g>
</svg>
