<?xml version="1.0" encoding="UTF-8" standalone="no"?>
<!DOCTYPE svg PUBLIC "-//W3C//DTD SVG 1.0//EN" "http://www.w3.org/TR/2001/REC-SVG-20010904/DTD/svg10.dtd">
<svg version="1.0" xmlns="http://www.w3.org/2000/svg" width="175" height="251">
  <defs>
    <clipPath id="clip1">
      <path d="M5 228.62c0 22.7 34 22.7 34 0v-137c0 -22.7 -34 -22.7 -34 0z m0 -171c0 22.7 34 22.7 34 0v-30c0 -22.7 -34 -22.7 -34 0z"/>
    </clipPath>
    <style type="text/css">
      .locus { fill:url(#lograd); }
      .dark1 { fill:url(#d1grad); }
      .dark2 { fill:url(#d2grad); }
      .line  { stroke:#f00; stroke-width:1; }
      .text  { font-size: 12px; fill: #000; font-family: DejaVu Sans Condensed; }
    </style>
    <linearGradient id="lograd" x1="0%" y1="0%" x2="100%" y2="0%">
      <stop offset="0%"   style="stop-color:#BBA"/>
      <stop offset="50%"  style="stop-color:#FFE"/>
      <stop offset="100%" style="stop-color:#BBA"/>
    </linearGradient>
    <linearGradient id="d1grad" x1="0%" y1="0%" x2="100%" y2="0%">
      <stop offset="0%"   style="stop-color:#877"/>
      <stop offset="50%"  style="stop-color:#CBB"/>
      <stop offset="100%" style="stop-color:#877"/>
    </linearGradient>
    <linearGradient id="d2grad" x1="0%" y1="0%" x2="100%" y2="0%">
      <stop offset="0%"   style="stop-color:#433"/>
      <stop offset="50%"  style="stop-color:#988"/>
      <stop offset="100%" style="stop-color:#433"/>
    </linearGradient>
    <linearGradient id="bgrad" x1="0%" y1="0%" x2="100%" y2="0%">
      <stop offset="0%"   style="stop-color:#000"/>
      <stop offset="50%"  style="stop-color:#666"/>
      <stop offset="100%" style="stop-color:#000"/>
    </linearGradient>
  </defs>
 <g id="Layer 1">

     <g id="locii" clip-path="url(#clip1)">
	 <rect x="0" y="0" width="40" height="773" fill="url(#bgrad)"/>
	 <path class="locus" d="M0 233.02h40v-10.08h-40z"/>
	 <path class="locus" d="M0 216.64h40v-16.38h-40z"/>
	 <path class="locus" d="M0 195.22h40v-7.56h-40z"/>
	 <path class="locus" d="M0 181.36h40v-12.59h-40z"/>
	 <path class="locus" d="M0 148.6h40v-16.38h-40z"/>
	 <path class="locus" d="M0 122.14h40v-20.16h-40z"/>
	 <path class="dark2" d="M0 88.12h40v-26.46h-40z"/>
	 <path class="locus" d="M0 44.02h40v-7.56h-40z"/>
	 <path class="locus" d="M0 31.42h40v-13.86h-40z"/>
</g>

<path class="line" d="M30 227.98h68"/>
<text class="text" x="102" y="232.98">18q22.3</text>
<path class="line" d="M30 208.45h15"/>
<text class="text" x="49" y="213.45">18q22.1</text>
<path class="line" d="M30 191.44h68"/>
<text class="text" x="102" y="196.44">18q21.32</text>
<path class="line" d="M30 175.06h15"/>
<text class="text" x="49" y="180.06">18q21.2</text>
<path class="line" d="M30 140.41h68"/>
<text class="text" x="102" y="145.41">18q12.3</text>
<path class="line" d="M30 112.06h15"/>
<text class="text" x="49" y="117.06">18q12.1</text>
<path class="line" d="M30 40.24h68"/>
<text class="text" x="102" y="45.24">18p11.22</text>
<path class="line" d="M30 24.49h15"/>
<text class="text" x="49" y="29.49">18p11.31</text>
 </g>
</svg>