<?xml version="1.0" encoding="UTF-8" standalone="no"?>
<!DOCTYPE svg PUBLIC "-//W3C//DTD SVG 1.0//EN" "http://www.w3.org/TR/2001/REC-SVG-20010904/DTD/svg10.dtd">
<svg version="1.0" xmlns="http://www.w3.org/2000/svg" width="175" height="769">
  <defs>
    <clipPath id="clip1">
      <path d="M5 746c0 22.7 34 22.7 34 0v-357c0 -22.7 -34 -22.7 -34 0z m0 -391c0 22.7 34 22.7 34 0v-337c0 -22.7 -34 -22.7 -34 0z"/>
    </clipPath>
    <style type="text/css">
      .locus { fill:url(#lograd); }
      .dark1 { fill:url(#d1grad); }
      .dark2 { fill:url(#d2grad); }
      .line  { stroke:#f00; stroke-width:1; }
      .text  { font-size: 12px; fill: #000; font-family: DejaVu Sans Condensed; }
    </style>
    <linearGradient id="lograd" x1="0%" y1="0%" x2="100%" y2="0%">
      <stop offset="0%"   style="stop-color:#BBA"/>
      <stop offset="50%"  style="stop-color:#FFE"/>
      <stop offset="100%" style="stop-color:#BBA"/>
    </linearGradient>
    <linearGradient id="d1grad" x1="0%" y1="0%" x2="100%" y2="0%">
      <stop offset="0%"   style="stop-color:#877"/>
      <stop offset="50%"  style="stop-color:#CBB"/>
      <stop offset="100%" style="stop-color:#877"/>
    </linearGradient>
    <linearGradient id="d2grad" x1="0%" y1="0%" x2="100%" y2="0%">
      <stop offset="0%"   style="stop-color:#433"/>
      <stop offset="50%"  style="stop-color:#988"/>
      <stop offset="100%" style="stop-color:#433"/>
    </linearGradient>
    <linearGradient id="bgrad" x1="0%" y1="0%" x2="100%" y2="0%">
      <stop offset="0%"   style="stop-color:#000"/>
      <stop offset="50%"  style="stop-color:#666"/>
      <stop offset="100%" style="stop-color:#000"/>
    </linearGradient>
  </defs>
 <g id="Layer 1">

     <g id="locii" clip-path="url(#clip1)">
	 <rect x="0" y="0" width="40" height="773" fill="url(#bgrad)"/>
	 <path class="locus" d="M0 749.1h40v-17.64h-40z"/>
	 <path class="locus" d="M0 721.38h40v-8.82h-40z"/>
	 <path class="locus" d="M0 693.66h40v-8.82h-40z"/>
	 <path class="locus" d="M0 679.8h40v-12.6h-40z"/>
	 <path class="locus" d="M0 654.6h40v-8.82h-40z"/>
	 <path class="locus" d="M0 624.36h40v-11.34h-40z"/>
	 <path class="locus" d="M0 605.46h40v-11.34h-40z"/>
	 <path class="locus" d="M0 575.22h40v-8.82h-40z"/>
	 <path class="locus" d="M0 558.84h40v-11.34h-40z"/>
	 <path class="locus" d="M0 538.68h40v-7.56h-40z"/>
	 <path class="locus" d="M0 516h40v-11.34h-40z"/>
	 <path class="locus" d="M0 485.76h40v-11.34h-40z"/>
	 <path class="locus" d="M0 460.56h40v-10.08h-40z"/>
	 <path class="dark1" d="M0 436.62h40v-44.1h-40z"/>
	 <path class="dark2" d="M0 392.52h40v-25.2h-40z"/>
	 <path class="locus" d="M0 363.54h40v-8.82h-40z"/>
	 <path class="locus" d="M0 345.9h40v-11.34h-40z"/>
	 <path class="locus" d="M0 323.22h40v-11.34h-40z"/>
	 <path class="locus" d="M0 281.64h40v-11.34h-40z"/>
	 <path class="locus" d="M0 253.92h40v-34.02h-40z"/>
	 <path class="locus" d="M0 208.56h40v-12.6h-40z"/>
	 <path class="locus" d="M0 179.58h40v-7.56h-40z"/>
	 <path class="locus" d="M0 158.16h40v-11.34h-40z"/>
	 <path class="locus" d="M0 129.18h40v-8.82h-40z"/>
	 <path class="locus" d="M0 102.72h40v-6.3h-40z"/>
	 <path class="locus" d="M0 90.12h40v-6.3h-40z"/>
	 <path class="locus" d="M0 73.74h40v-6.3h-40z"/>
	 <path class="locus" d="M0 49.8h40v-10.08h-40z"/>
	 <path class="locus" d="M0 29.64h40v-6.3h-40z"/>
	 <path class="locus" d="M0 18.3h40v-7.56h-40z"/>
</g>

<path class="line" d="M30 740.28h68"/>
<text class="text" x="102" y="745.28">1q43</text>
<path class="line" d="M30 716.97h15"/>
<text class="text" x="49" y="721.97">1q42.2</text>
<path class="line" d="M30 689.25h68"/>
<text class="text" x="102" y="694.25">1q42.12</text>
<path class="line" d="M30 673.5h15"/>
<text class="text" x="49" y="678.5">1q41</text>
<path class="line" d="M30 650.19h68"/>
<text class="text" x="102" y="655.19">1q32.2</text>
<path class="line" d="M30 618.69h15"/>
<text class="text" x="49" y="623.69">1q31.3</text>
<path class="line" d="M30 599.79h68"/>
<text class="text" x="102" y="604.79">1q31.1</text>
<path class="line" d="M30 570.81h15"/>
<text class="text" x="49" y="575.81">1q25.2</text>
<path class="line" d="M30 553.17h68"/>
<text class="text" x="102" y="558.17">1q24.3</text>
<path class="line" d="M30 534.9h15"/>
<text class="text" x="49" y="539.9">1q24.1</text>
<path class="line" d="M30 510.33h68"/>
<text class="text" x="102" y="515.33">1q23.2</text>
<path class="line" d="M30 480.09h15"/>
<text class="text" x="49" y="485.09">1q22</text>
<path class="line" d="M30 455.52h68"/>
<text class="text" x="102" y="460.52">1q21.2</text>
<path class="line" d="M30 414.57h15"/>
<text class="text" x="49" y="419.57">1q12</text>
<path class="line" d="M30 359.13h68"/>
<text class="text" x="102" y="364.13">1p12</text>
<path class="line" d="M30 340.23h15"/>
<text class="text" x="49" y="345.23">1p13.2</text>
<path class="line" d="M30 317.55h68"/>
<text class="text" x="102" y="322.55">1p21.3</text>
<path class="line" d="M30 275.97h15"/>
<text class="text" x="49" y="280.97">1p22.2</text>
<path class="line" d="M30 236.91h68"/>
<text class="text" x="102" y="241.91">1p31.1</text>
<path class="line" d="M30 202.26h15"/>
<text class="text" x="49" y="207.26">1p31.3</text>
<path class="line" d="M30 175.8h68"/>
<text class="text" x="102" y="180.8">1p32.2</text>
<path class="line" d="M30 152.49h15"/>
<text class="text" x="49" y="157.49">1p33</text>
<path class="line" d="M30 124.77h68"/>
<text class="text" x="102" y="129.77">1p34.2</text>
<path class="line" d="M30 99.57h15"/>
<text class="text" x="49" y="104.57">1p35.1</text>
<path class="line" d="M30 86.97h68"/>
<text class="text" x="102" y="91.97">1p35.3</text>
<path class="line" d="M30 70.59h15"/>
<text class="text" x="49" y="75.59">1p36.12</text>
<path class="line" d="M30 44.76h68"/>
<text class="text" x="102" y="49.76">1p36.21</text>
<path class="line" d="M30 26.49h15"/>
<text class="text" x="49" y="31.49">1p36.23</text>
<path class="line" d="M30 14.52h68"/>
<text class="text" x="102" y="19.52">1p36.32</text>
 </g>
</svg>
