<?xml version="1.0" encoding="UTF-8" standalone="no"?>
<!DOCTYPE svg PUBLIC "-//W3C//DTD SVG 1.0//EN" "http://www.w3.org/TR/2001/REC-SVG-20010904/DTD/svg10.dtd">
<svg version="1.0" xmlns="http://www.w3.org/2000/svg" width="175" height="397">
  <defs>
    <clipPath id="clip1">
      <path d="M5 374.78c0 22.7 34 22.7 34 0v-244c0 -22.7 -34 -22.7 -34 0z m0 -278c0 22.7 34 22.7 34 0v-69c0 -22.7 -34 -22.7 -34 0z"/>
    </clipPath>
    <style type="text/css">
      .locus { fill:url(#lograd); }
      .dark1 { fill:url(#d1grad); }
      .dark2 { fill:url(#d2grad); }
      .line  { stroke:#f00; stroke-width:1; }
      .text  { font-size: 12px; fill: #000; font-family: DejaVu Sans Condensed; }
    </style>
    <linearGradient id="lograd" x1="0%" y1="0%" x2="100%" y2="0%">
      <stop offset="0%"   style="stop-color:#BBA"/>
      <stop offset="50%"  style="stop-color:#FFE"/>
      <stop offset="100%" style="stop-color:#BBA"/>
    </linearGradient>
    <linearGradient id="d1grad" x1="0%" y1="0%" x2="100%" y2="0%">
      <stop offset="0%"   style="stop-color:#877"/>
      <stop offset="50%"  style="stop-color:#CBB"/>
      <stop offset="100%" style="stop-color:#877"/>
    </linearGradient>
    <linearGradient id="d2grad" x1="0%" y1="0%" x2="100%" y2="0%">
      <stop offset="0%"   style="stop-color:#433"/>
      <stop offset="50%"  style="stop-color:#988"/>
      <stop offset="100%" style="stop-color:#433"/>
    </linearGradient>
    <linearGradient id="bgrad" x1="0%" y1="0%" x2="100%" y2="0%">
      <stop offset="0%"   style="stop-color:#000"/>
      <stop offset="50%"  style="stop-color:#666"/>
      <stop offset="100%" style="stop-color:#000"/>
    </linearGradient>
  </defs>
 <g id="Layer 1">

     <g id="locii" clip-path="url(#clip1)">
	 <rect x="0" y="0" width="40" height="773" fill="url(#bgrad)"/>
	 <path class="locus" d="M0 377.92h40v-8.82h-40z"/>
	 <path class="locus" d="M0 351.46h40v-7.56h-40z"/>
	 <path class="locus" d="M0 338.86h40v-7.56h-40z"/>
	 <path class="locus" d="M0 325h40v-6.29h-40z"/>
	 <path class="locus" d="M0 307.36h40v-11.34h-40z"/>
	 <path class="locus" d="M0 269.56h40v-11.34h-40z"/>
	 <path class="locus" d="M0 292.24h40v-10.07h-40z"/>
	 <path class="locus" d="M0 255.7h40v-15.11h-40z"/>
	 <path class="locus" d="M0 231.76h40v-7.56h-40z"/>
	 <path class="locus" d="M0 211.6h40v-8.81h-40z"/>
	 <path class="locus" d="M0 199h40v-10.08h-40z"/>
	 <path class="locus" d="M0 182.62h40v-8.81h-40z"/>
	 <path class="locus" d="M0 156.16h40v-7.56h-40z"/>
	 <path class="locus" d="M0 141.04h40v-22.68h-40z"/>
	 <path class="dark2" d="M0 118.36h40v-11.33h-40z"/>
	 <path class="locus" d="M0 100.72h40v-6.3h-40z"/>
	 <path class="locus" d="M0 88.1199999999999h40v-13.85h-40z"/>
	 <path class="locus" d="M0 71.74h40v-12.59h-40z"/>
	 <path class="locus" d="M0 51.58h40v-7.56h-40z"/>
	 <path class="locus" d="M0 32.64h40v-5.04h-40z"/>
</g>

<path class="line" d="M30 373.51h68"/>
<text class="text" x="102" y="378.51">12q24.32</text>
<path class="line" d="M30 347.68h15"/>
<text class="text" x="49" y="352.68">12q24.23</text>
<path class="line" d="M30 335.08h68"/>
<text class="text" x="102" y="340.08">12q24.21</text>
<path class="line" d="M30 321.85h15"/>
<text class="text" x="49" y="326.85">12q24.12</text>
<path class="line" d="M30 301.69h68"/>
<text class="text" x="102" y="306.69">12q23.3</text>
<path class="line" d="M30 263.89h15"/>
<text class="text" x="49" y="268.89">12q21.33</text>
<path class="line" d="M30 287.2h68"/>
<text class="text" x="102" y="292.2">12q23.1</text>
<path class="line" d="M30 248.14h15"/>
<text class="text" x="49" y="253.14">12q21.31</text>
<path class="line" d="M30 227.98h68"/>
<text class="text" x="102" y="232.98">12q21.1</text>
<path class="line" d="M30 207.19h15"/>
<text class="text" x="49" y="212.19">12q14.3</text>
<path class="line" d="M30 193.96h68"/>
<text class="text" x="102" y="198.96">12q14.1</text>
<path class="line" d="M30 178.21h15"/>
<text class="text" x="49" y="183.21">12q13.2</text>
<path class="line" d="M30 152.38h68"/>
<text class="text" x="102" y="157.38">12q13.12</text>
<path class="line" d="M30 129.7h15"/>
<text class="text" x="49" y="134.7">12q12</text>
<path class="line" d="M30 97.57h68"/>
<text class="text" x="102" y="102.57">12p11.22</text>
<path class="line" d="M30 81.19h15"/>
<text class="text" x="49" y="86.19">12p12.1</text>
<path class="line" d="M30 65.44h68"/>
<text class="text" x="102" y="70.44">12p12.3</text>
<!--<path class="locus" d="M0 51.58h40v-7.56h-40z"/>-->
<path class="line" d="M30 47.8h15"/>
<text class="text" x="49" y="52.8">12p13.2</text>
<!--<path class="locus" d="M0 32.64h40v-5.04h-40z"/>-->
<path class="line" d="M30 30.12h68"/>
<text class="text" x="102" y="35.12">12p13.32</text>
</g>
</svg>
