<?xml version="1.0" encoding="UTF-8" standalone="no"?>
<!DOCTYPE svg PUBLIC "-//W3C//DTD SVG 1.0//EN" "http://www.w3.org/TR/2001/REC-SVG-20010904/DTD/svg10.dtd">
<svg version="1.0" xmlns="http://www.w3.org/2000/svg" width="175" height="584">
  <defs>
    <clipPath id="clip1">
      <path d="M5 561.26c0 22.7 34 22.7 34 0v-380c0 -22.7 -34 -22.7 -34 0z m0 -414c0 22.7 34 22.7 34 0v-119c0 -22.7 -34 -22.7 -34 0z"/>
    </clipPath>
    <style type="text/css">
      .locus { fill:url(#lograd); }
      .dark1 { fill:url(#d1grad); }
      .dark2 { fill:url(#d2grad); }
      .line  { stroke:#f00; stroke-width:1; }
      .text  { font-size: 12px; fill: #000; font-family: DejaVu Sans Condensed; }
    </style>
    <linearGradient id="lograd" x1="0%" y1="0%" x2="100%" y2="0%">
      <stop offset="0%"   style="stop-color:#BBA"/>
      <stop offset="50%"  style="stop-color:#FFE"/>
      <stop offset="100%" style="stop-color:#BBA"/>
    </linearGradient>
    <linearGradient id="d1grad" x1="0%" y1="0%" x2="100%" y2="0%">
      <stop offset="0%"   style="stop-color:#877"/>
      <stop offset="50%"  style="stop-color:#CBB"/>
      <stop offset="100%" style="stop-color:#877"/>
    </linearGradient>
    <linearGradient id="d2grad" x1="0%" y1="0%" x2="100%" y2="0%">
      <stop offset="0%"   style="stop-color:#433"/>
      <stop offset="50%"  style="stop-color:#988"/>
      <stop offset="100%" style="stop-color:#433"/>
    </linearGradient>
    <linearGradient id="bgrad" x1="0%" y1="0%" x2="100%" y2="0%">
      <stop offset="0%"   style="stop-color:#000"/>
      <stop offset="50%"  style="stop-color:#666"/>
      <stop offset="100%" style="stop-color:#000"/>
    </linearGradient>
  </defs>
 <g id="Layer 1">

     <g id="locii" clip-path="url(#clip1)">
	 <rect x="0" y="0" width="40" height="773" fill="url(#bgrad)"/>
	 <path class="locus" d="M0 578.22h40v-6.3h-40z"/>
	 <path class="locus" d="M0 554.28h40v-11.34h-40z"/>
	 <path class="locus" d="M0 539.16h40v-12.6h-40z"/>
	 <path class="locus" d="M0 521.52h40v-15.12h-40z"/>
	 <path class="locus" d="M0 500.1h40v-17.64h-40z"/>
	 <path class="locus" d="M0 472.38h40v-7.56h-40z"/>
	 <path class="locus" d="M0 458.52h40v-7.56h-40z"/>
	 <path class="locus" d="M0 434.58h40v-26.46h-40z"/>
	 <path class="locus" d="M0 399.3h40v-15.12h-40z"/>
	 <path class="locus" d="M0 372.84h40v-17.64h-40z"/>
	 <path class="locus" d="M0 337.56h40v-15.12h-40z"/>
	 <path class="locus" d="M0 313.62h40v-11.34h-40z"/>
	 <path class="locus" d="M0 294.72h40v-18.9h-40z"/>
	 <path class="locus" d="M0 261.96h40v-6.3h-40z"/>
	 <path class="locus" d="M0 251.88h40v-8.82h-40z"/>
	 <path class="locus" d="M0 234.24h40v-13.86h-40z"/>
	 <path class="locus" d="M0 212.82h40v-17.64h-40z"/>
	 <path class="dark2" d="M0 178.8h40v-18.9h-40z"/>
	 <path class="locus" d="M0 153.6h40v-11.34h-40z"/>
	 <path class="locus" d="M0 124.62h40v-17.64h-40z"/>
	 <path class="locus" d="M0 94.38h40v-13.86h-40z"/>
	 <path class="locus" d="M0 69.1799999999999h40v-13.86h-40z"/>
	 <path class="locus" d="M0 35.16h40v-8.82h-40z"/>
</g>

<path class="line" d="M30 575.07h68"/>
<text class="text" x="102" y="580.07">4q35.2</text>
<path class="line" d="M30 548.61h15"/>
<text class="text" x="49" y="553.61">4q34.3</text>
<path class="line" d="M30 532.86h68"/>
<text class="text" x="102" y="537.86">4q34.1</text>
<path class="line" d="M30 513.96h15"/>
<text class="text" x="49" y="518.96">4q32.3</text>
<path class="line" d="M30 491.28h68"/>
<text class="text" x="102" y="496.28">4q32.1</text>
<path class="line" d="M30 468.6h15"/>
<text class="text" x="49" y="473.6">4q31.23</text>
<path class="line" d="M30 454.74h68"/>
<text class="text" x="102" y="459.74">4q31.21</text>
<path class="line" d="M30 421.35h15"/>
<text class="text" x="49" y="426.35">4q28.3</text>
<path class="line" d="M30 391.74h68"/>
<text class="text" x="102" y="396.74">4q28.1</text>
<path class="line" d="M30 364.02h15"/>
<text class="text" x="49" y="369.02">4q26</text>
<path class="line" d="M30 330h68"/>
<text class="text" x="102" y="335">4q24</text>
<path class="line" d="M30 307.95h15"/>
<text class="text" x="49" y="312.95">4q22.3</text>
<path class="line" d="M30 285.27h68"/>
<text class="text" x="102" y="290.27">4q22.1</text>
<path class="line" d="M30 258.81h15"/>
<text class="text" x="49" y="263.81">4q21.23</text>
<path class="line" d="M30 247.47h68"/>
<text class="text" x="102" y="252.47">4q21.21</text>
<path class="line" d="M30 227.31h15"/>
<text class="text" x="49" y="232.31">4q13.3</text>
<path class="line" d="M30 204h68"/>
<text class="text" x="102" y="209">4q13.1</text>
<path class="line" d="M30 147.93h15"/>
<text class="text" x="49" y="152.93">4p13</text>
<path class="line" d="M30 115.8h68"/>
<text class="text" x="102" y="120.8">4p15.1</text>
<path class="line" d="M30 87.45h15"/>
<text class="text" x="49" y="92.45">4p15.31</text>
<path class="line" d="M30 62.25h68"/>
<text class="text" x="102" y="67.25">4p15.33</text>
<path class="line" d="M30 30.75h15"/>
<text class="text" x="49" y="35.75">4p16.2</text>
 </g>
</svg>
