<?xml version="1.0" encoding="UTF-8" standalone="no"?>
<!DOCTYPE svg PUBLIC "-//W3C//DTD SVG 1.0//EN" "http://www.w3.org/TR/2001/REC-SVG-20010904/DTD/svg10.dtd">
<svg version="1.0" xmlns="http://www.w3.org/2000/svg" width="175" height="491">
  <defs>
    <clipPath id="clip1">
      <path d="M5 468.02c0 22.7 34 22.7 34 0v-267c0 -22.7 -34 -22.7 -34 0z m0 -301c0 22.7 34 22.7 34 0v-139c0 -22.7 -34 -22.7 -34 0z"/>
    </clipPath>
    <style type="text/css">
      .locus { fill:url(#lograd); }
      .dark1 { fill:url(#d1grad); }
      .dark2 { fill:url(#d2grad); }
      .line  { stroke:#f00; stroke-width:1; }
      .text  { font-size: 12px; fill: #000; font-family: DejaVu Sans Condensed; }
    </style>
    <linearGradient id="lograd" x1="0%" y1="0%" x2="100%" y2="0%">
      <stop offset="0%"   style="stop-color:#BBA"/>
      <stop offset="50%"  style="stop-color:#FFE"/>
      <stop offset="100%" style="stop-color:#BBA"/>
    </linearGradient>
    <linearGradient id="d1grad" x1="0%" y1="0%" x2="100%" y2="0%">
      <stop offset="0%"   style="stop-color:#877"/>
      <stop offset="50%"  style="stop-color:#CBB"/>
      <stop offset="100%" style="stop-color:#877"/>
    </linearGradient>
    <linearGradient id="d2grad" x1="0%" y1="0%" x2="100%" y2="0%">
      <stop offset="0%"   style="stop-color:#433"/>
      <stop offset="50%"  style="stop-color:#988"/>
      <stop offset="100%" style="stop-color:#433"/>
    </linearGradient>
    <linearGradient id="bgrad" x1="0%" y1="0%" x2="100%" y2="0%">
      <stop offset="0%"   style="stop-color:#000"/>
      <stop offset="50%"  style="stop-color:#666"/>
      <stop offset="100%" style="stop-color:#000"/>
    </linearGradient>
  </defs>
 <g id="Layer 1">

     <g id="locii" clip-path="url(#clip1)">
	 <rect x="0" y="0" width="40" height="773" fill="url(#bgrad)"/>
	 <path class="locus" d="M0 469.9h40v-8.82h-40z"/>
	 <path class="locus" d="M0 445.96h40v-12.6h-40z"/>
	 <path class="locus" d="M0 415.72h40v-11.34h-40z"/>
	 <path class="locus" d="M0 393.04h40v-6.3h-40z"/>
	 <path class="locus" d="M0 382.96h40v-7.56h-40z"/>
	 <path class="locus" d="M0 369.1h40v-11.34h-40z"/>
	 <path class="locus" d="M0 348.94h40v-11.34h-40z"/>
	 <path class="locus" d="M0 328.78h40v-8.82h-40z"/>
	 <path class="locus" d="M0 297.28h40v-13.86h-40z"/>
	 <path class="locus" d="M0 277.12h40v-8.82h-40z"/>
	 <path class="locus" d="M0 262h40v-20.16h-40z"/>
	 <path class="locus" d="M0 220.42h40v-10.08h-40z"/>
	 <path class="dark2" d="M0 197.74h40v-21.42h-40z"/>
	 <path class="locus" d="M0 164.98h40v-8.82h-40z"/>
	 <path class="locus" d="M0 152.38h40v-10.08h-40z"/>
	 <path class="locus" d="M0 127.18h40v-13.86h-40z"/>
	 <path class="locus" d="M0 110.8h40v-8.82h-40z"/>
	 <path class="locus" d="M0 90.64h40v-8.82h-40z"/>
	 <path class="locus" d="M0 66.7h40v-7.56h-40z"/>
	 <path class="locus" d="M0 56.62h40v-15.12h-40z"/>
	 <path class="locus" d="M0 30.16h40v-8.82h-40z"/>
</g>

<path class="line" d="M30 465.49h68"/>
<text class="text" x="102" y="470.49">7q36.2</text>
<path class="line" d="M30 439.66h15"/>
<text class="text" x="49" y="444.66">7q35</text>
<path class="line" d="M30 410.05h68"/>
<text class="text" x="102" y="415.05">7q33</text>
<path class="line" d="M30 389.89h15"/>
<text class="text" x="49" y="394.89">7q32.2</text>
<path class="line" d="M30 379.18h68"/>
<text class="text" x="102" y="384.18">7q31.33</text>
<path class="line" d="M30 363.43h15"/>
<text class="text" x="49" y="368.43">7q31.31</text>
<path class="line" d="M30 343.27h68"/>
<text class="text" x="102" y="348.27">7q31.1</text>
<path class="line" d="M30 324.37h15"/>
<text class="text" x="49" y="329.37">7q22.2</text>
<path class="line" d="M30 290.35h68"/>
<text class="text" x="102" y="295.35">7q21.3</text>
<path class="line" d="M30 272.71h15"/>
<text class="text" x="49" y="277.71">7q21.13</text>
<path class="line" d="M30 251.92h68"/>
<text class="text" x="102" y="256.92">7q21.11</text>
<path class="line" d="M30 215.38h15"/>
<text class="text" x="49" y="220.38">7q11.22</text>
<path class="line" d="M30 160.57h68"/>
<text class="text" x="102" y="165.57">7p12.1</text>
<path class="line" d="M30 147.34h15"/>
<text class="text" x="49" y="152.34">7p12.3</text>
<path class="line" d="M30 120.25h68"/>
<text class="text" x="102" y="125.25">7p14.1</text>
<path class="line" d="M30 106.39h15"/>
<text class="text" x="49" y="111.39">7p14.3</text>
<path class="line" d="M30 86.23h68"/>
<text class="text" x="102" y="91.23">7p15.2</text>
<path class="line" d="M30 62.92h15"/>
<text class="text" x="49" y="67.92">7p21.1</text>
<path class="line" d="M30 49.06h68"/>
<text class="text" x="102" y="54.06">7p21.3</text>
<path class="line" d="M30 25.75h15"/>
<text class="text" x="49" y="30.75">7p22.2</text>
 </g>
</svg>
