<?xml version="1.0" encoding="UTF-8" standalone="no"?>
<!DOCTYPE svg PUBLIC "-//W3C//DTD SVG 1.0//EN" "http://www.w3.org/TR/2001/REC-SVG-20010904/DTD/svg10.dtd">
<svg version="1.0" xmlns="http://www.w3.org/2000/svg" width="175" height="201">
  <defs>
    <clipPath id="clip1">
      <path d="M5 178.22c0 22.7 34 22.7 34 0v-94c0 -22.7 -34 -22.7 -34 0z m0 -128c0 22.7 34 22.7 34 0v-22c0 -22.7 -34 -22.7 -34 0z"/>
    </clipPath>
    <style type="text/css">
      .locus { fill:url(#lograd); }
      .dark1 { fill:url(#d1grad); }
      .dark2 { fill:url(#d2grad); }
      .line  { stroke:#f00; stroke-width:1; }
      .text  { font-size: 12px; fill: #000; font-family: DejaVu Sans Condensed; }
    </style>
    <linearGradient id="lograd" x1="0%" y1="0%" x2="100%" y2="0%">
      <stop offset="0%"   style="stop-color:#BBA"/>
      <stop offset="50%"  style="stop-color:#FFE"/>
      <stop offset="100%" style="stop-color:#BBA"/>
    </linearGradient>
    <linearGradient id="d1grad" x1="0%" y1="0%" x2="100%" y2="0%">
      <stop offset="0%"   style="stop-color:#877"/>
      <stop offset="50%"  style="stop-color:#CBB"/>
      <stop offset="100%" style="stop-color:#877"/>
    </linearGradient>
    <linearGradient id="d2grad" x1="0%" y1="0%" x2="100%" y2="0%">
      <stop offset="0%"   style="stop-color:#433"/>
      <stop offset="50%"  style="stop-color:#988"/>
      <stop offset="100%" style="stop-color:#433"/>
    </linearGradient>
    <linearGradient id="bgrad" x1="0%" y1="0%" x2="100%" y2="0%">
      <stop offset="0%"   style="stop-color:#000"/>
      <stop offset="50%"  style="stop-color:#666"/>
      <stop offset="100%" style="stop-color:#000"/>
    </linearGradient>
  </defs>
 <g id="Layer 1">

     <g id="locii" clip-path="url(#clip1)">
	 <rect x="0" y="0" width="40" height="773" style="fill:url(#bgrad)"/>
	 <path class="dark1" d="M0 194.18h40v-65.74h-40z"/>
	 <path class="locus" d="M0 119.62h40v-13.86h-40z"/>
	 <path class="locus" d="M0 96.94h40v-16.37h-40z"/>
	 <path class="dark2" d="M0 74.26h40v-11.34h-40z"/>
	 <path class="locus" d="M0 25.12h40v-7.56h-40z"/>
</g>

<path class="line" d="M30 159.31h68"/>
<text class="text" x="102" y="164.31">Yq12</text>
<path class="line" d="M30 112.69h15"/>
<text class="text" x="49" y="117.69">Yq11.223</text>
<path class="line" d="M30 88.75h68"/>
<text class="text" x="102" y="93.75">Yq11.221</text>
<path class="line" d="M30 21.34h15"/>
<text class="text" x="49" y="26.34">Yp11.31</text>
 </g>
</svg>
