<?xml version="1.0" encoding="UTF-8" standalone="no"?>
<!DOCTYPE svg PUBLIC "-//W3C//DTD SVG 1.0//EN" "http://www.w3.org/TR/2001/REC-SVG-20010904/DTD/svg10.dtd">
<svg version="1.0" xmlns="http://www.w3.org/2000/svg" width="175" height="420">
  <defs>
    <clipPath id="clip1">
      <path d="M5 397.46c0 22.7 34 22.7 34 0v-215c0 -22.7 -34 -22.7 -34 0z m0 -249c0 22.7 34 22.7 34 0v-120c0 -22.7 -34 -22.7 -34 0z"/>
    </clipPath>
    <style type="text/css">
      .locus { fill:url(#lograd); }
      .dark1 { fill:url(#d1grad); }
      .dark2 { fill:url(#d2grad); }
      .line  { stroke:#f00; stroke-width:1; }
      .text  { font-size: 12px; fill: #000; font-family: DejaVu Sans Condensed; }
    </style>
    <linearGradient id="lograd" x1="0%" y1="0%" x2="100%" y2="0%">
      <stop offset="0%"   style="stop-color:#BBA"/>
      <stop offset="50%"  style="stop-color:#FFE"/>
      <stop offset="100%" style="stop-color:#BBA"/>
    </linearGradient>
    <linearGradient id="d1grad" x1="0%" y1="0%" x2="100%" y2="0%">
      <stop offset="0%"   style="stop-color:#877"/>
      <stop offset="50%"  style="stop-color:#CBB"/>
      <stop offset="100%" style="stop-color:#877"/>
    </linearGradient>
    <linearGradient id="d2grad" x1="0%" y1="0%" x2="100%" y2="0%">
      <stop offset="0%"   style="stop-color:#433"/>
      <stop offset="50%"  style="stop-color:#988"/>
      <stop offset="100%" style="stop-color:#433"/>
    </linearGradient>
    <linearGradient id="bgrad" x1="0%" y1="0%" x2="100%" y2="0%">
      <stop offset="0%"   style="stop-color:#000"/>
      <stop offset="50%"  style="stop-color:#666"/>
      <stop offset="100%" style="stop-color:#000"/>
    </linearGradient>
  </defs>
 <g id="Layer 1">

     <g id="locii" clip-path="url(#clip1)">
	 <rect x="0" y="0" width="40" height="773" fill="url(#bgrad)"/>
	 <path class="locus" d="M0 399.34h40v-7.55h-40z"/>
	 <path class="locus" d="M0 380.44h40v-7.55h-40z"/>
	 <path class="locus" d="M0 348.94h40v-10.07h-40z"/>
	 <path class="locus" d="M0 328.78h40v-11.33h-40z"/>
	 <path class="locus" d="M0 311.14h40v-12.59h-40z"/>
	 <path class="locus" d="M0 287.2h40v-11.33h-40z"/>
	 <path class="locus" d="M0 270.82h40v-13.85h-40z"/>
	 <path class="locus" d="M0 246.88h40v-8.81h-40z"/>
	 <path class="locus" d="M0 221.68h40v-7.56h-40z"/>
	 <path class="locus" d="M0 196.48h40v-6.3h-40z"/>
	 <path class="locus" d="M0 183.88h40v-11.34h-40z"/>
	 <path class="dark2" d="M0 172.54h40v-16.37h-40z"/>
	 <path class="locus" d="M0 156.16h40v-11.34h-40z"/>
	 <path class="locus" d="M0 129.7h40v-11.34h-40z"/>
	 <path class="locus" d="M0 99.46h40v-12.6h-40z"/>
	 <path class="locus" d="M0 84.34h40v-12.6h-40z"/>
	 <path class="locus" d="M0 56.62h40v-10.08h-40z"/>
	 <path class="locus" d="M0 32.68h40v-11.33h-40z"/>
</g>

<path class="line" d="M30 395.56h68"/>
<text class="text" x="102" y="400.56">11q24.3</text>
<path class="line" d="M30 376.66h15"/>
<text class="text" x="49" y="381.66">11q24.1</text>
<path class="line" d="M30 343.9h68"/>
<text class="text" x="102" y="348.9">11q23.2</text>
<path class="line" d="M30 323.11h15"/>
<text class="text" x="49" y="328.11">11q22.3</text>
<path class="line" d="M30 304.84h68"/>
<text class="text" x="102" y="309.84">11q22.1</text>
<path class="line" d="M30 281.53h15"/>
<text class="text" x="49" y="286.53">11q14.3</text>
<path class="line" d="M30 263.89h68"/>
<text class="text" x="102" y="268.89">11q14.1</text>
<path class="line" d="M30 242.47h15"/>
<text class="text" x="49" y="247.47">11q13.4</text>
<path class="line" d="M30 217.9h68"/>
<text class="text" x="102" y="222.9">11q13.2</text>
<path class="line" d="M30 193.33h15"/>
<text class="text" x="49" y="198.33">11q12.3</text>
<path class="line" d="M30 178.21h68"/>
<text class="text" x="102" y="183.21">11q12.1</text>
<path class="line" d="M30 150.49h15"/>
<text class="text" x="49" y="155.49">11p11.12</text>
<path class="line" d="M30 124.03h68"/>
<text class="text" x="102" y="129.03">11p12</text>
<path class="line" d="M30 93.16h15"/>
<text class="text" x="49" y="98.16">11p14.1</text>
<path class="line" d="M30 78.04h68"/>
<text class="text" x="102" y="83.04">11p14.3</text>
<path class="line" d="M30 51.58h15"/>
<text class="text" x="49" y="56.58">11p15.2</text>
<path class="line" d="M30 27.01h68"/>
<text class="text" x="102" y="32.01">11p15.4</text>
 </g>
</svg>
